<svg width="128" height="146" viewBox="0 0 128 146" fill="none" xmlns="http://www.w3.org/2000/svg">
<path d="M54.6 144.2C42.4667 144.2 32.4 142.733 24.4 139.8C16.5333 136.867 10.6667 132.867 6.8 127.8C2.93333 122.6 1 116.867 1 110.6C1 109.133 1.06667 107.533 1.2 105.8C1.46667 104.067 1.86667 102.267 2.4 100.4H37.4C37.2667 101.067 37.1333 101.8 37 102.6C37 103.267 37 103.933 37 104.6C37 108.6 38.6 111.667 41.8 113.8C45.1333 115.8 49.6667 116.8 55.4 116.8C60.4667 116.8 64.8 115.933 68.4 114.2C72.1333 112.333 74.9333 109.8 76.8 106.6C78.8 103.267 79.8 99.4667 79.8 95.2C79.8 92.6667 79.2667 90.6 78.2 89C77.2667 87.2667 75.8667 86 74 85.2C72.2667 84.4 70.2667 84 68 84H53.4L57.8 59.4H69.2C71.6 59.4 73.8 59 75.8 58.2C77.9333 57.2667 79.7333 56.0667 81.2 54.6C82.8 53 84 51.1333 84.8 49C85.6 46.8667 86 44.6 86 42.2C86 39.8 85.4 37.6667 84.2 35.8C83.1333 33.8 81.4667 32.2 79.2 31C76.9333 29.8 74 29.2 70.4 29.2C66.6667 29.2 63.4 29.8 60.6 31C57.8 32.2 55.5333 33.8 53.8 35.8C52.0667 37.8 50.9333 40 50.4 42.4L50 44.4H16.4L17.2 39.4C18.2667 32.4667 21.2 26.2 26 20.6C30.9333 14.8667 37.6 10.3333 46 6.99999C54.4 3.53332 64.5333 1.79999 76.4 1.79999C86.9333 1.79999 95.8667 3.26666 103.2 6.19999C110.667 8.99999 116.333 12.8667 120.2 17.8C124.2 22.7333 126.2 28.4 126.2 34.8C126.2 40.2667 125 45.4 122.6 50.2C120.333 55 117.2 59.0667 113.2 62.4C109.333 65.7333 105.067 68.1333 100.4 69.6L100.2 70.4C106.067 72.6667 110.6 76.2 113.8 81C117.133 85.6667 118.8 91.2667 118.8 97.8C118.8 107.933 115.933 116.467 110.2 123.4C104.467 130.2 96.7333 135.4 87 139C77.2667 142.467 66.4667 144.2 54.6 144.2Z" stroke="url(#paint0_linear_2_7258)" stroke-width="2"/>
<defs>
<linearGradient id="paint0_linear_2_7258" x1="1.96308" y1="149.055" x2="140.134" y2="134.552" gradientUnits="userSpaceOnUse">
<stop stop-color="#F2F452"/>
<stop offset="0.694854" stop-color="#B4FD64"/>
</linearGradient>
</defs>
</svg>
