<svg width="133" height="142" viewBox="0 0 133 142" fill="none" xmlns="http://www.w3.org/2000/svg">
<path d="M64 141L69 112.8H2L7.2 83C12.6667 76.6 18.4667 69.0667 24.6 60.4C30.8667 51.6 36.9333 42.1333 42.8 32C48.6667 21.7333 53.8 11.4 58.2 1H99.4C98.0667 5.4 95.6667 10.4 92.2 16C88.8667 21.6 84.8667 27.5333 80.2 33.8C75.6667 40.0667 70.8 46.2667 65.6 52.4C60.4 58.4 55.2 64.1333 50 69.6C44.9333 74.9333 40.2 79.5333 35.8 83.4H74.2L78.8 56.6C80.9333 54.2 83.4 51.2 86.2 47.6C89 43.8667 91.8 40 94.6 36C97.4 32 99.9333 28.0667 102.2 24.2C104.467 20.3333 106.2 17 107.4 14.2H124.4L112.2 83.4H131.4L126.2 112.8H107L102 141H64Z" stroke="url(#paint0_linear_2_7261)" stroke-width="2"/>
<defs>
<linearGradient id="paint0_linear_2_7261" x1="2.99538" y1="145.773" x2="145.638" y2="130.033" gradientUnits="userSpaceOnUse">
<stop stop-color="#F2F452"/>
<stop offset="0.694854" stop-color="#B4FD64"/>
</linearGradient>
</defs>
</svg>
