<svg width="115" height="142" viewBox="0 0 115 142" fill="none" xmlns="http://www.w3.org/2000/svg">
<path d="M2.01502 139.727L1.80942 140.9H3H106.8H107.64L107.785 140.073L113.185 109.273L113.391 108.1H112.2H81.9932L100.785 2.27481L100.993 1.09998H99.8H86.4H86.1327L85.901 1.23335C81.5286 3.75083 76.6874 6.27126 71.3761 8.79425C66.2085 11.1791 60.7735 13.3664 55.0706 15.3557L55.0637 15.3582C49.4944 17.3472 43.9943 19.0038 38.563 20.3284C33.1439 21.6502 28.1382 22.439 23.543 22.7016L22.7563 22.7465L22.616 23.5218L18.416 46.7218L18.2027 47.9H19.4H50.8076L40.1613 108.1H8.4H7.56007L7.41502 108.927L2.01502 139.727Z" stroke="url(#paint0_linear_2_7255)" stroke-width="2"/>
<defs>
<linearGradient id="paint0_linear_2_7255" x1="3.84" y1="144.598" x2="124.6" y2="133.173" gradientUnits="userSpaceOnUse">
<stop stop-color="#F2F452"/>
<stop offset="0.694854" stop-color="#B4FD64"/>
</linearGradient>
</defs>
</svg>
