<svg width="134" height="142" viewBox="0 0 134 142" fill="none" xmlns="http://www.w3.org/2000/svg">
<path d="M2 141L3.8 131.4C5 125.267 7.46667 119.533 11.2 114.2C14.9333 108.867 19.4667 103.867 24.8 99.2C30.1333 94.4 35.8 89.8667 41.8 85.6C47.9333 81.3333 53.9333 77.3333 59.8 73.6C65.8 69.7333 71.2 66 76 62.4C80.9333 58.6667 84.8667 55.0667 87.8 51.6C90.7333 48 92.2 44.4 92.2 40.8C92.2 37.7333 91.0667 35.0667 88.8 32.8C86.5333 30.4 82.7333 29.2 77.4 29.2C73.2667 29.2 69.6 30 66.4 31.6C63.2 33.2 60.6 35.4667 58.6 38.4C56.6 41.2 55.2667 44.4 54.6 48L54 52H17.8C18.6 43.6 20.6667 36.2 24 29.8C27.4667 23.4 32 18.0667 37.6 13.8C43.3333 9.53333 49.9333 6.33334 57.4 4.20001C65 2.06667 73.2667 1 82.2 1C92.2 1 100.933 2.6 108.4 5.8C116 8.86666 121.867 13.2 126 18.8C130.267 24.2667 132.4 30.6 132.4 37.8C132.4 42.8667 131.6 47.6 130 52C128.533 56.4 126.4 60.5333 123.6 64.4C120.933 68.1333 117.733 71.6667 114 75C110.4 78.3333 106.467 81.5333 102.2 84.6C97.9333 87.6667 93.5333 90.6 89 93.4C84.4667 96.2 79.8667 99 75.2 101.8C74 102.467 72.6667 103.333 71.2 104.4C69.8667 105.467 68.7333 106.4 67.8 107.2H122L116 141H2Z" stroke="url(#paint0_linear_1_5155)" stroke-width="2"/>
<defs>
<linearGradient id="paint0_linear_1_5155" x1="3.00308" y1="145.773" x2="146.721" y2="129.792" gradientUnits="userSpaceOnUse">
<stop stop-color="#F2F452"/>
<stop offset="0.694854" stop-color="#B4FD64"/>
</linearGradient>
</defs>
</svg>
