<svg width="127" height="142" viewBox="0 0 127 142" fill="none" xmlns="http://www.w3.org/2000/svg">
<path d="M56.6 141C44.6 141 34.4667 139.4 26.2 136.2C17.9333 133 11.6667 128.533 7.4 122.8C3.13333 116.933 1 110.133 1 102.4C1 101.067 1.06667 99.7333 1.2 98.4C1.33333 96.9333 1.53333 95.5333 1.8 94.2H37C36.8667 94.8667 36.7333 95.5333 36.6 96.2C36.6 96.7333 36.6 97.3333 36.6 98C36.6 100.933 37.2667 103.6 38.6 106C39.9333 108.267 41.9333 110.067 44.6 111.4C47.4 112.733 50.8667 113.4 55 113.4C58.8667 113.4 62.3333 112.8 65.4 111.6C68.4667 110.267 71.0667 108.467 73.2 106.2C75.4667 103.8 77.2 101.133 78.4 98.2C79.6 95.1333 80.2 91.9333 80.2 88.6C80.2 83.8 78.6667 79.9333 75.6 77C72.6667 73.9333 68.2667 72.4 62.4 72.4C58 72.4 54.4 73.0667 51.6 74.4C48.8 75.7333 46.6 77.2 45 78.8C43.5333 80.2667 42.3333 81.4667 41.4 82.4L10.6 78L30 1H125.2L119.2 35H53.8L48.4 55.8C49.7333 54.7333 51.6 53.5333 54 52.2C56.4 50.7333 59.4667 49.4667 63.2 48.4C67.0667 47.3333 71.7333 46.8 77.2 46.8C85.8667 46.8 93.3333 48.3333 99.6 51.4C106 54.4667 110.933 58.8667 114.4 64.6C118 70.2 119.8 76.9333 119.8 84.8C119.8 96.1333 117 106 111.4 114.4C105.8 122.8 98.2 129.333 88.6 134C79.1333 138.667 68.4667 141 56.6 141Z" stroke="url(#paint0_linear_2_7264)" stroke-width="2"/>
<defs>
<linearGradient id="paint0_linear_2_7264" x1="1.95538" y1="145.773" x2="138.995" y2="131.259" gradientUnits="userSpaceOnUse">
<stop stop-color="#F2F452"/>
<stop offset="0.694854" stop-color="#B4FD64"/>
</linearGradient>
</defs>
</svg>
