<svg width="28" height="26" viewBox="0 0 28 26" fill="none" xmlns="http://www.w3.org/2000/svg">
<path d="M24.6667 8.66663H17.184L18.6814 4.17729C18.9507 3.36663 18.8147 2.46796 18.3147 1.77463C17.8147 1.08129 17.004 0.666626 16.1494 0.666626H14C13.604 0.666626 13.2294 0.842626 12.9747 1.14663L6.70802 8.66663H3.33335C1.86269 8.66663 0.666687 9.86263 0.666687 11.3333V23.3333C0.666687 24.804 1.86269 26 3.33335 26H21.076C21.6185 25.9982 22.1477 25.8317 22.5936 25.5227C23.0396 25.2137 23.3812 24.7766 23.5734 24.2693L27.2494 14.468C27.3052 14.3183 27.3336 14.1597 27.3334 14V11.3333C27.3334 9.86263 26.1374 8.66663 24.6667 8.66663ZM3.33335 11.3333H6.00002V23.3333H3.33335V11.3333ZM24.6667 13.7586L21.076 23.3333H8.66669V10.4826L14.624 3.33329H16.152L14.0694 9.57729C14.0017 9.77771 13.9829 9.99136 14.0143 10.2005C14.0458 10.4097 14.1267 10.6083 14.2502 10.78C14.3738 10.9517 14.5365 11.0914 14.7249 11.1876C14.9132 11.2839 15.1218 11.3338 15.3334 11.3333H24.6667V13.7586Z" fill="#B4FD64"/>
</svg>
