<svg width="115" height="40" viewBox="0 0 115 40" fill="none" xmlns="http://www.w3.org/2000/svg">
<path d="M26 11.2L26 28.8L0 40L1.77577e-06 0L26 11.2Z" fill="white"/>
<path d="M19.5 3.6V7.675L13 4.85V1.11901e-06L19.5 3.6Z" fill="white"/>
<path d="M26 7.2V10.5L20.3125 8.02813V4.05L26 7.2Z" fill="white"/>
<path d="M38 16.5721V12.7589H55.347V16.5721H49.3345V26.7351H44.0159V16.5721H38Z" fill="white"/>
<path d="M62.9135 26.7385L55.8718 12.7589H61.9046L66.5867 22.511L70.9878 12.7589H76.5128L69.9755 26.7385H62.9135Z" fill="white"/>
<path d="M86.8723 12.4941C95.8641 12.4941 97.0253 16.7963 97.0253 19.4278V19.9915C97.0253 22.6027 95.881 27 86.8723 27H86.0294C77.0004 27 75.8561 22.6027 75.8561 19.9915V19.4278C75.8561 16.7963 77.0004 12.4941 86.0294 12.4941H86.8723ZM91.5172 19.5569C91.5172 18.073 90.5625 16.2496 86.4424 16.2496C82.3223 16.2496 81.3676 18.073 81.3676 19.5569V19.781C81.3676 21.2479 82.3223 23.2207 86.4424 23.2207C90.5625 23.2207 91.5172 21.3226 91.5172 19.8183V19.5569Z" fill="white"/>
<path d="M113.848 12.7589V16.1782H103.678V17.927H113.645V21.3293H103.678V23.2444H114V26.7385H98.4337V12.7589H113.851H113.848ZM105.868 11.9134H101.261V9H105.868V11.9134ZM111.356 11.9134H106.765V9H111.356V11.9134Z" fill="white"/>
</svg>
