<svg width="19" height="28" viewBox="0 0 19 28" fill="none" xmlns="http://www.w3.org/2000/svg">
<path d="M11 22C11 22.7363 10.403 23.3333 9.66665 23.3333C8.93027 23.3333 8.33331 22.7363 8.33331 22C8.33331 21.2636 8.93027 20.6666 9.66665 20.6666C10.403 20.6666 11 21.2636 11 22Z" fill="#B4FD64"/>
<path fill-rule="evenodd" clip-rule="evenodd" d="M2.99998 0.666626H16.3333C17.804 0.666626 19 1.86263 19 3.33329V24.6666C19 26.1373 17.804 27.3333 16.3333 27.3333H2.99998C1.52931 27.3333 0.333313 26.1373 0.333313 24.6666V3.33329C0.333313 1.86263 1.52931 0.666626 2.99998 0.666626ZM2.99998 3.33329V24.6666H16.336L16.3333 3.33329H2.99998Z" fill="#B4FD64"/>
</svg>
