<svg width="24" height="26" viewBox="0 0 24 26" fill="none" xmlns="http://www.w3.org/2000/svg">
<path d="M20.9412 11.0058C20.3815 11.5149 20.0518 12.2213 20.0518 12.9749C20.0518 13.7284 20.3815 14.4348 20.9412 14.9439C21.3122 15.2814 21.765 15.5156 22.2506 15.6345V18.9749C22.2506 19.2822 22.117 19.5931 21.8519 19.8342C21.5845 20.0775 21.2078 20.2249 20.8018 20.2249H3.21138C2.8054 20.2249 2.42868 20.0775 2.16124 19.8342C1.89617 19.5931 1.76257 19.2822 1.76257 18.9749V15.6345C2.24819 15.5156 2.70101 15.2814 3.07202 14.9439C3.63165 14.4348 3.96138 13.7284 3.96138 12.9749C3.96138 12.2213 3.63165 11.5149 3.07202 11.0058C2.70101 10.6684 2.24819 10.4341 1.76257 10.3152V6.97485C1.76257 6.6675 1.89617 6.35656 2.16124 6.11546C2.42868 5.8722 2.8054 5.72485 3.21138 5.72485H20.8018C21.2078 5.72485 21.5845 5.8722 21.8519 6.11546C22.117 6.35656 22.2506 6.6675 22.2506 6.97485V10.3152C21.765 10.4341 21.3122 10.6684 20.9412 11.0058Z" stroke="white" stroke-width="1.5"/>
<path d="M12.0131 8.97485L13.1933 11.3503L15.8173 11.7388L13.9228 13.5954L14.3642 16.2109L12.0131 14.9829L9.66192 16.2109L10.1033 13.5954L8.20884 11.7388L10.8328 11.3503L12.0131 8.97485Z" fill="white"/>
</svg>
