<svg width="22" height="17" viewBox="0 0 22 17" fill="none" xmlns="http://www.w3.org/2000/svg">
<path d="M19.9412 7.00582C19.3815 7.51486 19.0518 8.22134 19.0518 8.97485C19.0518 9.72837 19.3815 10.4348 19.9412 10.9439C20.3122 11.2814 20.765 11.5156 21.2506 11.6345V14.9749C21.2506 15.2822 21.117 15.5931 20.8519 15.8342C20.5845 16.0775 20.2078 16.2249 19.8018 16.2249H2.21138C1.8054 16.2249 1.42868 16.0775 1.16124 15.8342C0.896169 15.5931 0.762573 15.2822 0.762573 14.9749V11.6345C1.24819 11.5156 1.70101 11.2814 2.07202 10.9439C2.63165 10.4348 2.96138 9.72837 2.96138 8.97485C2.96138 8.22134 2.63165 7.51486 2.07202 7.00582C1.70101 6.66836 1.24819 6.43408 0.762573 6.31517V2.97485C0.762573 2.6675 0.896169 2.35656 1.16124 2.11546C1.42868 1.8722 1.8054 1.72485 2.21138 1.72485H19.8018C20.2078 1.72485 20.5845 1.8722 20.8519 2.11546C21.117 2.35656 21.2506 2.6675 21.2506 2.97485V6.31517C20.765 6.43408 20.3122 6.66836 19.9412 7.00582Z" stroke="white" stroke-width="1.5"/>
</svg>
