<svg width="29" height="29" viewBox="0 0 29 29" fill="none" xmlns="http://www.w3.org/2000/svg">
<path d="M6.89992 17.5651L4.8648 26.3776C4.80178 26.6444 4.8207 26.9241 4.91908 27.18C5.01747 27.4359 5.19075 27.6563 5.41629 27.8122C5.64183 27.9681 5.90915 28.0524 6.18333 28.054C6.45751 28.0556 6.72581 27.9745 6.95319 27.8213L14.3903 22.8633L21.8273 27.8213C22.06 27.9758 22.3344 28.0553 22.6136 28.0492C22.8928 28.043 23.1634 27.9516 23.389 27.7871C23.6147 27.6225 23.7846 27.3929 23.8758 27.1289C23.967 26.865 23.9752 26.5794 23.8993 26.3107L21.4012 17.5692L27.5967 11.9938C27.7951 11.8151 27.9368 11.5822 28.0043 11.3239C28.0718 11.0655 28.062 10.793 27.9763 10.5402C27.8905 10.2873 27.7325 10.0651 27.5219 9.90106C27.3112 9.73702 27.057 9.63834 26.7908 9.61721L19.0041 8.99711L15.6346 1.53818C15.5271 1.298 15.3525 1.09405 15.1317 0.950946C14.9109 0.807839 14.6534 0.731689 14.3903 0.731689C14.1271 0.731689 13.8697 0.807839 13.6489 0.950946C13.4281 1.09405 13.2534 1.298 13.146 1.53818L9.77641 8.99711L1.98968 9.61584C1.72805 9.63657 1.47794 9.73223 1.26926 9.89137C1.06058 10.0505 0.902174 10.2664 0.812984 10.5132C0.723794 10.7601 0.707601 11.0274 0.766343 11.2831C0.825084 11.5389 0.956273 11.7724 1.14421 11.9555L6.89992 17.5651ZM10.7967 11.6564C11.0405 11.6372 11.2746 11.5528 11.4746 11.412C11.6745 11.2711 11.8329 11.0791 11.9331 10.856L14.3903 5.41857L16.8474 10.856C16.9476 11.0791 17.106 11.2711 17.3059 11.412C17.5059 11.5528 17.74 11.6372 17.9838 11.6564L23.409 12.0867L18.9413 16.1077C18.5534 16.4574 18.399 16.9955 18.5411 17.4982L20.2525 23.4874L15.1497 20.0851C14.9257 19.9348 14.6621 19.8545 14.3923 19.8545C14.1226 19.8545 13.8589 19.9348 13.6349 20.0851L8.30265 23.6404L9.7368 17.4313C9.78938 17.2029 9.78233 16.9648 9.71631 16.74C9.65029 16.5151 9.52752 16.311 9.35982 16.1474L5.21036 12.1017L10.7967 11.6564Z" fill="#B4FD64"/>
</svg>
