<svg width="26" height="22" viewBox="0 0 26 22" fill="none" xmlns="http://www.w3.org/2000/svg">
<path d="M24 0.00012207H2C1.46957 0.00012207 0.960859 0.210836 0.585786 0.585908C0.210714 0.960981 0 1.46969 0 2.00012V20.0001C0 20.5306 0.210714 21.0393 0.585786 21.4143C0.960859 21.7894 1.46957 22.0001 2 22.0001H24C24.5304 22.0001 25.0391 21.7894 25.4142 21.4143C25.7893 21.0393 26 20.5306 26 20.0001V2.00012C26 1.46969 25.7893 0.960981 25.4142 0.585908C25.0391 0.210836 24.5304 0.00012207 24 0.00012207ZM2 6.00012H12V16.0001H2V6.00012ZM14 4.00012V2.00012H18V4.00012H14ZM12 4.00012H8V2.00012H12V4.00012ZM12 18.0001V20.0001H8V18.0001H12ZM14 18.0001H18V20.0001H14V18.0001ZM14 16.0001V6.00012H24V16.0001H14ZM24 4.00012H20V2.00012H24V4.00012ZM6 2.00012V4.00012H2V2.00012H6ZM2 18.0001H6V20.0001H2V18.0001ZM24 20.0001H20V18.0001H24V20.0001Z" fill="#B4FD64"/>
</svg>
